<svg xmlns="http://www.w3.org/2000/svg" version="1.1" xmlns:xlink="http://www.w3.org/1999/xlink" xmlns:svgjs="http://svgjs.com/svgjs" width="1440" height="400" preserveAspectRatio="none" viewBox="0 0 1440 400"><g mask="url(&quot;#SvgjsMask1042&quot;)" fill="none"><path d="M25 400L425 0L528.5 0L128.5 400z" fill="url(#SvgjsLinearGradient1043)"></path><path d="M285.6 400L685.6 0L951.1 0L551.1 400z" fill="url(#SvgjsLinearGradient1043)"></path><path d="M508.20000000000005 400L908.2 0L1260.7 0L860.7 400z" fill="url(#SvgjsLinearGradient1043)"></path><path d="M722.8000000000001 400L1122.8000000000002 0L1278.8000000000002 0L878.8000000000001 400z" fill="url(#SvgjsLinearGradient1043)"></path><path d="M1417 400L1017 0L799.5 0L1199.5 400z" fill="url(#SvgjsLinearGradient1044)"></path><path d="M1188.4 400L788.4000000000001 0L621.9000000000001 0L1021.9000000000001 400z" fill="url(#SvgjsLinearGradient1044)"></path><path d="M921.8 400L521.8 0L196.29999999999995 0L596.3 400z" fill="url(#SvgjsLinearGradient1044)"></path><path d="M725.1999999999999 400L325.19999999999993 0L196.19999999999993 0L596.1999999999999 400z" fill="url(#SvgjsLinearGradient1044)"></path><path d="M1221.9404523344642 400L1440 181.94045233446423L1440 400z" fill="url(#SvgjsLinearGradient1043)"></path><path d="M0 400L218.05954766553577 400L 0 181.94045233446423z" fill="url(#SvgjsLinearGradient1044)"></path></g><defs><mask id="SvgjsMask1042"><rect width="1440" height="400" fill="#ffffff"></rect></mask><linearGradient x1="0%" y1="100%" x2="100%" y2="0%" id="SvgjsLinearGradient1043"><stop stop-color="rgba(15, 70, 185, 0.2)" offset="0"></stop><stop stop-opacity="0" stop-color="rgba(15, 70, 185, 0.2)" offset="0.66"></stop></linearGradient><linearGradient x1="100%" y1="100%" x2="0%" y2="0%" id="SvgjsLinearGradient1044"><stop stop-color="rgba(15, 70, 185, 0.2)" offset="0"></stop><stop stop-opacity="0" stop-color="rgba(15, 70, 185, 0.2)" offset="0.66"></stop></linearGradient></defs></svg>