<svg xmlns="http://www.w3.org/2000/svg" version="1.1" xmlns:xlink="http://www.w3.org/1999/xlink" xmlns:svgjs="http://svgjs.com/svgjs" width="1440" height="560" preserveAspectRatio="none" viewBox="0 0 1440 560"><g mask="url(&quot;#SvgjsMask1016&quot;)" fill="none"><path d="M0 0L364.28 0L0 198.43z" fill="rgba(255, 255, 255, .1)"></path><path d="M0 198.43L364.28 0L818.3399999999999 0L0 263.93z" fill="rgba(255, 255, 255, .075)"></path><path d="M0 263.93L818.3399999999999 0L1048.9699999999998 0L0 265.69z" fill="rgba(255, 255, 255, .05)"></path><path d="M0 265.69L1048.9699999999998 0L1291.5099999999998 0L0 329.15z" fill="rgba(255, 255, 255, .025)"></path><path d="M1440 560L1085.16 560L1440 397.37z" fill="rgba(0, 0, 0, .1)"></path><path d="M1440 397.37L1085.16 560L941.8000000000001 560L1440 305.23z" fill="rgba(0, 0, 0, .075)"></path><path d="M1440 305.23L941.8 560L467.90999999999997 560L1440 212.24z" fill="rgba(0, 0, 0, .05)"></path><path d="M1440 212.24L467.9100000000001 560L291.95000000000005 560L1440 84.28000000000002z" fill="rgba(0, 0, 0, .025)"></path></g><defs><mask id="SvgjsMask1016"><rect width="1440" height="560" fill="#ffffff"></rect></mask></defs></svg>